PathFileType  4	(X/Y/Z) C:\Users\antoi\Documents\MyRepositories\mobilecap\ResultsAnalysis
DataRate	CameraRate	NumFrames	NumMarkers	Units	OrigDataRate	OrigDataStartFrame	OrigNumFrames
100.0	100.0	4	51	mm	100.0	273	311
Frame#	Time	r_knee			r_shank_antsup			r_ankle			r_calc			r_5meta			r_toe			L_knee			L_shank_antsup			L_ankle			L_calc			L_5meta			L_toe			r_sh2			r_sh3			r_sh4			L_sh2			L_sh3			r_thigh1			r_thigh2			r_thigh3			r_thigh4			r_thigh5			L_thigh1			L_thigh2			L_thigh3			L_thigh4			r.ASIS			r.PSIS			L.ASIS			L.PSIS			C7			R_Shoulder			L_Shoulder			R_Sternum			L_Sternum			R_humerus			R_elbow_med			R_elbow_lat			R_forearm			R_wrist_radius			R_wrist_ulna			L_humerus			L_elbow_med			L_elbow_lat			L_forearm			L_wrist_radius			L_wrist_ulna			R_HJC			L_HJC			R_HJC_reg			L_HJC_reg			
		X1	Y1	Z1	X2	Y2	Z2	X3	Y3	Z3	X4	Y4	Z4	X5	Y5	Z5	X6	Y6	Z6	X7	Y7	Z7	X8	Y8	Z8	X9	Y9	Z9	X10	Y10	Z10	X11	Y11	Z11	X12	Y12	Z12	X13	Y13	Z13	X14	Y14	Z14	X15	Y15	Z15	X16	Y16	Z16	X17	Y17	Z17	X18	Y18	Z18	X19	Y19	Z19	X20	Y20	Z20	X21	Y21	Z21	X22	Y22	Z22	X23	Y23	Z23	X24	Y24	Z24	X25	Y25	Z25	X26	Y26	Z26	X27	Y27	Z27	X28	Y28	Z28	X29	Y29	Z29	X30	Y30	Z30	X31	Y31	Z31	X32	Y32	Z32	X33	Y33	Z33	X34	Y34	Z34	X35	Y35	Z35	X36	Y36	Z36	X37	Y37	Z37	X38	Y38	Z38	X39	Y39	Z39	X40	Y40	Z40	X41	Y41	Z41	X42	Y42	Z42	X43	Y43	Z43	X44	Y44	Z44	X45	Y45	Z45	X46	Y46	Z46	X47	Y47	Z47	X48	Y48	Z48	X49	Y49	Z49	X50	Y50	Z50	X51	Y51	Z51	

273	2.72000000	-247.58255	811.12293	-441.67247	-221.17168	755.90007	-430.75413	-234.21266	417.75612	-434.73705	-273.36300	432.22632	-498.31763	-182.34829	305.89361	-413.13804	-119.02653	310.16326	-439.10375	-233.01990	807.85820	-767.12680	-192.21286	734.55052	-780.43932	-205.60207	422.42858	-817.97946	-247.17107	415.65280	-753.64702	-137.83611	312.69813	-844.35017	-70.23233	323.86234	-818.04699	-226.70777	643.98682	-415.52505	-297.56917	762.03424	-426.68260	-307.63743	642.42742	-425.33390	-281.16582	741.50125	-789.97296	-272.73908	620.64485	-813.63764	-185.01106	1057.73461	-392.43270	-188.44993	945.35445	-408.64953	-294.01590	947.11723	-443.08888	-295.22441	1061.77290	-418.53870	-251.58043	925.46969	-415.85539	-190.07214	1087.94764	-799.56257	-183.02037	949.25967	-787.98937	-298.63682	1085.71448	-770.49363	-290.89388	947.90577	-747.18158	-117.95784	1258.37353	-485.43037	-313.60771	1319.41651	-550.65589	-123.95666	1260.98283	-700.77925	-312.91050	1316.96516	-629.56052	-183.50163	1730.97588	-544.08978	-111.78341	1696.04477	-412.45034	-132.79586	1725.51482	-678.80961	-52.58662	1681.11929	-529.54493	-60.31924	1677.54163	-567.80043	-69.36733	1609.47982	-333.35754	-127.48103	1410.22325	-245.29813	-78.20221	1447.08025	-204.02132	5.77941	1442.95912	-250.40107	107.09270	1410.40452	-336.97875	119.34328	1383.52539	-312.29035	-125.86514	1692.87081	-783.20616	-177.20784	1528.72706	-938.01458	-146.92848	1595.16375	-959.22378	-47.77698	1582.66250	-922.25268	47.20744	1557.14663	-848.50940	56.97801	1528.06979	-874.94510	-208.13205	1183.91892	-486.57262	-213.28822	1187.89250	-693.97724	-200.11152	1207.98967	-513.75897	-198.85630	1203.57489	-655.88175	
274	2.73000000	-244.76826	812.22492	-440.16712	-218.00861	756.63566	-430.37908	-233.42930	418.77398	-433.40094	-273.65022	433.46981	-496.08733	-181.77704	306.73662	-412.56350	-118.87596	310.58217	-439.98399	-232.97272	809.52073	-767.49926	-193.32500	736.45401	-781.27330	-206.20956	424.00054	-818.53315	-248.26978	416.95372	-754.73370	-137.73754	314.77360	-844.80381	-70.37618	326.30892	-818.02760	-224.09670	644.94901	-414.56801	-293.88726	763.58807	-425.25788	-305.19380	644.00481	-423.31152	-282.35524	743.27536	-789.45299	-274.22034	622.70128	-812.91245	-184.97945	1059.30598	-391.71175	-187.06120	946.85162	-407.75938	-292.45845	947.59160	-443.12347	-295.18028	1061.93279	-417.76272	-249.98171	926.34842	-415.18597	-189.09193	1089.45799	-799.32946	-181.97456	950.80696	-787.59368	-298.37846	1086.85209	-773.48874	-290.28653	949.31126	-748.28135	-117.81535	1258.85516	-485.40063	-313.36220	1320.98701	-549.80065	-124.16669	1262.48581	-699.60542	-312.42153	1318.83787	-629.21748	-183.26577	1732.75291	-542.59233	-110.90841	1696.97555	-410.98492	-131.84560	1727.49657	-678.15926	-51.03138	1683.74134	-524.87006	-58.80465	1679.97300	-567.36848	-69.89090	1607.30157	-333.23329	-133.66104	1407.90671	-250.02450	-83.77933	1442.10463	-207.90252	0.83385	1435.48899	-252.89495	102.42885	1399.60379	-338.39786	113.39366	1372.39722	-313.42570	-125.61367	1692.07130	-782.43104	-186.74053	1525.55557	-931.54565	-153.57333	1589.73448	-955.31110	-54.64977	1573.48790	-919.91937	40.11363	1545.48359	-846.48207	48.58639	1515.80694	-872.59182	-208.41996	1184.80660	-486.40451	-213.51505	1189.65760	-693.79248	-200.42805	1209.24140	-513.98933	-198.75375	1205.41485	-655.38514	
275	2.74000000	-241.35100	812.35627	-438.57666	-213.25624	756.24985	-429.99623	-232.68390	418.82868	-431.83433	-274.84999	433.86834	-493.16089	-181.63474	306.48059	-412.26683	-119.65691	309.48574	-441.89203	-231.80742	810.26101	-768.11898	-192.64729	737.12272	-781.70909	-206.93637	424.61182	-819.26824	-250.18719	417.59703	-756.05085	-138.66168	315.17188	-844.31358	-71.80562	326.39758	-816.28884	-220.15500	644.58242	-413.98109	-288.93800	764.08953	-422.57550	-301.42641	644.70006	-419.94821	-281.65746	744.48060	-790.19192	-274.18713	624.05970	-813.68386	-184.57706	1060.02205	-391.13670	-185.52662	947.53042	-406.84152	-290.75309	947.19632	-442.95297	-294.95859	1061.23696	-416.89288	-248.30231	926.29268	-414.39742	-188.15516	1090.11133	-799.00395	-180.67953	951.52541	-787.48965	-298.07224	1086.56915	-776.76090	-289.26156	949.50313	-749.38539	-117.60255	1258.74071	-485.22550	-313.24965	1321.65754	-549.29348	-124.41340	1263.23167	-698.04037	-311.94501	1320.09016	-628.74945	-183.02432	1733.81563	-541.16314	-109.88313	1697.24444	-409.70150	-131.06892	1728.59064	-677.27456	-50.74597	1683.39885	-522.88351	-56.50792	1682.10857	-567.40930	-70.68690	1604.69138	-332.87914	-139.07569	1404.97703	-255.04364	-88.79712	1436.73312	-211.92745	-3.78569	1427.99741	-256.07694	97.94552	1388.87081	-340.61334	107.68247	1361.25936	-315.33895	-125.93322	1690.47020	-781.71780	-195.49822	1521.61526	-925.13546	-159.84628	1583.44515	-951.24876	-61.43788	1563.86215	-916.66264	33.12194	1533.77609	-843.74570	40.35078	1503.54646	-869.24346	-208.77802	1185.04573	-486.08996	-213.61616	1190.64824	-693.46582	-200.68610	1209.41633	-514.31889	-198.37872	1206.64409	-654.83242	
276	2.75000000	-237.42405	811.43413	-437.09673	-207.53994	754.60428	-429.97926	-231.94931	417.99413	-430.27614	-276.60912	433.33594	-489.90755	-181.76231	305.11445	-412.28807	-121.16046	307.16009	-444.22576	-229.82471	810.07007	-769.08762	-190.51392	736.53847	-781.87169	-207.66936	424.24199	-820.10482	-252.67917	417.58401	-757.63106	-140.17472	314.03542	-843.13109	-74.06895	324.53939	-813.37658	-215.43554	643.13277	-413.61988	-283.44743	763.29341	-419.34846	-296.59512	644.81186	-415.71584	-279.29109	744.87749	-792.09181	-272.81548	624.25674	-815.67705	-183.71771	1059.65374	-390.75193	-183.89176	947.06551	-406.05555	-288.89223	945.81858	-442.41139	-294.27645	1059.64347	-416.06320	-246.46618	925.23185	-413.43276	-187.21969	1089.89862	-798.69866	-179.27993	951.28860	-787.59383	-297.59333	1085.20077	-779.85095	-288.04804	948.67547	-750.64569	-117.30802	1257.91695	-484.82606	-313.17990	1321.49097	-548.93461	-124.60037	1263.15863	-696.45998	-311.59709	1320.67430	-628.24613	-182.89068	1733.99742	-539.96906	-108.88734	1696.64864	-408.55561	-130.46375	1728.62194	-676.31402	-50.56748	1682.56080	-523.66071	-56.46184	1681.92574	-567.43630	-71.64629	1601.76921	-332.29386	-143.66176	1401.51976	-260.31260	-93.16173	1430.99068	-215.91307	-8.02300	1420.31453	-259.72868	93.67070	1378.13335	-343.20787	102.26555	1350.03697	-317.88745	-126.77891	1688.04911	-781.18132	-203.63353	1516.74069	-918.60288	-165.74468	1576.11290	-947.04218	-67.90313	1553.96972	-912.66212	26.34042	1521.74195	-840.27530	32.39353	1491.09526	-865.41012	-209.16575	1184.57024	-485.70394	-213.66043	1190.84592	-693.06763	-200.77701	1208.53449	-514.47946	-197.98761	1207.09546	-654.24799	
